<?xml version="1.0" encoding="UTF-8"?>
<svg id="Layer_2" data-name="Layer 2" xmlns="http://www.w3.org/2000/svg" viewBox="0 0 1601.49 353.14">
  <defs>
    <style>
      .cls-1 {
        letter-spacing: -.02em;
      }

      .cls-1, .cls-2, .cls-3, .cls-4, .cls-5, .cls-6, .cls-7, .cls-8, .cls-9 {
        fill: #c1c1c1;
        font-family: Barlow-Regular, Barlow;
      }

      .cls-10, .cls-11 {
        fill: #fff;
      }

      .cls-12 {
        fill: none;
        stroke: #fff;
        stroke-miterlimit: 10;
        stroke-width: 1.63px;
      }

      .cls-2 {
        letter-spacing: 0em;
      }

      .cls-3 {
        letter-spacing: 0em;
      }

      .cls-4 {
        letter-spacing: 0em;
      }

      .cls-5 {
        letter-spacing: 0em;
      }

      .cls-6 {
        letter-spacing: 0em;
      }

      .cls-7 {
        letter-spacing: -.02em;
      }

      .cls-13 {
        font-size: 35.66px;
      }

      .cls-11 {
        font-family: Barlow-Medium, Barlow;
        font-weight: 500;
      }

      .cls-9 {
        letter-spacing: 0em;
      }
    </style>
  </defs>
  <g id="Layer_1-2" data-name="Layer 1">
    <g>
      <g>
        <path class="cls-10" d="M90.34,28.51h-31.24V.27h31.24v28.24ZM90.34,185.08h-31.24V55.19h31.24v129.9Z"/>
        <line class="cls-12" x1="36.54" y1="216.82" x2="112.9" y2="216.82"/>
        <line class="cls-12" x1="36.54" y1="217.62" x2="36.54" y2="198.29"/>
        <line class="cls-12" x1="112.9" y1="217.62" x2="112.9" y2="198.29"/>
        <line class="cls-12" x1="74.72" y1="217.63" x2="74.72" y2="310.25"/>
        <text class="cls-13" transform="translate(0 345.69)"><tspan class="cls-11" x="0" y="0">I</tspan><tspan class="cls-8" x="9.27" y="0">n</tspan><tspan class="cls-7" x="28.49" y="0">t</tspan><tspan class="cls-8" x="40.93" y="0">egritas</tspan></text>
      </g>
      <g>
        <g>
          <path class="cls-10" d="M392.93,185.08h-31.24v-72.1c0-4.09-.7-7.75-2.1-11-1.4-3.24-3.3-6.03-5.71-8.35-2.4-2.32-5.23-4.1-8.47-5.35-3.24-1.24-6.75-1.86-10.51-1.86h-54.67v98.65h-31.24v-114.4c0-2.16.4-4.19,1.2-6.07.8-1.88,1.92-3.52,3.36-4.93,1.44-1.4,3.12-2.5,5.05-3.3,1.92-.8,3.97-1.2,6.13-1.2h70.42c3.92,0,8.07.44,12.44,1.32,4.37.88,8.69,2.3,12.98,4.27,4.28,1.96,8.37,4.45,12.26,7.45,3.88,3,7.33,6.65,10.33,10.93,3,4.29,5.39,9.23,7.15,14.84,1.76,5.61,2.64,11.94,2.64,18.99v72.1Z"/>
          <g>
            <line class="cls-12" x1="227.22" y1="216.82" x2="414.59" y2="216.82"/>
            <line class="cls-12" x1="226.4" y1="217.62" x2="226.4" y2="198.29"/>
            <line class="cls-12" x1="415.42" y1="217.63" x2="415.42" y2="198.3"/>
            <line class="cls-12" x1="320.91" y1="217.63" x2="320.91" y2="310.25"/>
          </g>
          <text class="cls-13" transform="translate(219.19 345.69)"><tspan class="cls-11" x="0" y="0">N</tspan><tspan class="cls-4" x="24" y="0">ilai E</tspan><tspan class="cls-6" x="97.3" y="0">s</tspan><tspan class="cls-7" x="114.42" y="0">t</tspan><tspan class="cls-2" x="126.86" y="0">e</tspan><tspan class="cls-8" x="145.62" y="0">ti</tspan><tspan class="cls-9" x="167.69" y="0">k</tspan><tspan class="cls-8" x="185.23" y="0">a</tspan></text>
        </g>
        <text class="cls-13" transform="translate(219.19 345.69)"><tspan class="cls-11" x="0" y="0">N</tspan><tspan class="cls-4" x="24" y="0">ilai E</tspan><tspan class="cls-6" x="97.3" y="0">s</tspan><tspan class="cls-7" x="114.42" y="0">t</tspan><tspan class="cls-2" x="126.86" y="0">e</tspan><tspan class="cls-8" x="145.62" y="0">ti</tspan><tspan class="cls-9" x="167.69" y="0">k</tspan><tspan class="cls-8" x="185.23" y="0">a</tspan></text>
      </g>
      <g>
        <path class="cls-10" d="M940.52,155.03v30.06h-58.81c-22.94,0-41.54-18.6-41.54-41.54V12.88h30.06v43.43h55.89v30.06h-55.89v54.06c0,8.07,6.54,14.6,14.6,14.6h55.69Z"/>
        <g>
          <line class="cls-12" x1="817.33" y1="216.82" x2="963.06" y2="216.82"/>
          <line class="cls-12" x1="817.62" y1="217.63" x2="817.62" y2="198.3"/>
          <line class="cls-12" x1="963.06" y1="217.63" x2="963.06" y2="198.3"/>
          <line class="cls-12" x1="890.2" y1="217.63" x2="890.2" y2="310.25"/>
        </g>
        <text class="cls-13" transform="translate(814.43 345.69)"><tspan class="cls-11" x="0" y="0">T</tspan><tspan class="cls-8" x="20.47" y="0">ek</tspan><tspan class="cls-3" x="57.33" y="0">n</tspan><tspan class="cls-8" x="76.3" y="0">ologi</tspan></text>
      </g>
      <g>
        <path class="cls-10" d="M1240.53,97.19c0,4.38-.77,9.1-2.31,14.16-1.54,5.07-4.03,9.77-7.48,14.1-3.45,4.34-7.94,7.96-13.49,10.88-5.55,2.92-12.3,4.38-20.24,4.38h-57.02v-30.03h57.02c4.29,0,7.62-1.32,9.97-3.95,2.35-2.63,3.53-5.9,3.53-9.79,0-4.13-1.32-7.37-3.95-9.73-2.63-2.35-5.82-3.53-9.54-3.53h-57.02c-4.3,0-7.62,1.32-9.97,3.95-2.35,2.63-3.53,5.9-3.53,9.79v44.13c0,4.22,1.32,7.5,3.95,9.85,2.63,2.35,5.9,3.53,9.79,3.53h56.77v30.15h-57.02c-4.38,0-9.1-.77-14.16-2.31-5.07-1.54-9.77-4.03-14.1-7.48-4.34-3.44-7.96-7.94-10.88-13.49-2.92-5.55-4.38-12.3-4.38-20.24v-44.37c0-4.38.77-9.1,2.31-14.16,1.54-5.06,4.03-9.77,7.48-14.1,3.44-4.33,7.94-7.96,13.49-10.88,5.55-2.92,12.3-4.38,20.24-4.38h57.02c4.38,0,9.1.77,14.16,2.31,5.06,1.54,9.77,4.03,14.1,7.48,4.33,3.45,7.96,7.94,10.88,13.49,2.92,5.55,4.38,12.3,4.38,20.24Z"/>
        <line class="cls-12" x1="1077.15" y1="216.82" x2="1251.41" y2="216.82"/>
        <line class="cls-12" x1="1076.6" y1="217.63" x2="1076.6" y2="198.3"/>
        <line class="cls-12" x1="1252.22" y1="217.63" x2="1252.22" y2="198.3"/>
        <line class="cls-12" x1="1164.28" y1="217.63" x2="1164.28" y2="310.25"/>
        <text class="cls-13" transform="translate(1097.35 345.69)"><tspan class="cls-11" x="0" y="0">E</tspan><tspan class="cls-8" x="21.32" y="0">fisiensi</tspan></text>
      </g>
      <g>
        <polygon class="cls-10" points="1527.9 54.73 1477.86 54.73 1420.9 100.65 1420.9 0 1389.63 0 1389.63 185 1420.9 185 1420.9 125.23 1482.79 185 1527.9 185 1454.28 114.03 1527.9 54.73"/>
        <line class="cls-12" x1="1367.87" y1="216.82" x2="1542.8" y2="216.82"/>
        <line class="cls-12" x1="1367.06" y1="217.63" x2="1367.06" y2="198.3"/>
        <line class="cls-12" x1="1543.44" y1="217.63" x2="1543.44" y2="198.3"/>
        <line class="cls-12" x1="1455.34" y1="217.63" x2="1455.34" y2="310.25"/>
        <text class="cls-13" transform="translate(1309.18 345.69)"><tspan class="cls-11" x="0" y="0">K</tspan><tspan class="cls-8" x="21.96" y="0">omit</tspan><tspan class="cls-2" x="92.96" y="0">m</tspan><tspan class="cls-8" x="122.19" y="0">en Kualitas</tspan></text>
      </g>
      <g>
        <path class="cls-10" d="M692.67,112.03v13.99c-.1,32.58-26.48,58.96-59.06,59.06h-26.85c-32.58-.1-58.97-26.48-59.06-59.06v-13.99c.1-32.58,26.48-58.96,59.06-59.06h26.85c32.58.1,58.96,26.48,59.06,59.06ZM666.96,109.51c-.05-17-13.82-30.77-30.82-30.82h-31.89c-17,.05-30.77,13.82-30.82,30.82v19.03c.05,17,13.82,30.77,30.82,30.82h31.89c17-.05,30.77-13.82,30.82-30.82v-19.03Z"/>
        <g>
          <text class="cls-13" transform="translate(463.12 345.69)"><tspan class="cls-11" x="0" y="0">O</tspan><tspan class="cls-5" x="22.18" y="0">rientasi </tspan><tspan class="cls-1" x="147.04" y="0">P</tspan><tspan class="cls-8" x="167.51" y="0">elanggan</tspan></text>
          <g>
            <line class="cls-12" x1="530.43" y1="216.82" x2="703.55" y2="216.82"/>
            <line class="cls-12" x1="529.63" y1="217.63" x2="529.63" y2="198.3"/>
            <line class="cls-12" x1="704.31" y1="217.63" x2="704.31" y2="198.3"/>
            <line class="cls-12" x1="616.99" y1="217.63" x2="616.99" y2="310.25"/>
          </g>
        </g>
      </g>
    </g>
  </g>
</svg>