<svg width="53" height="53" viewBox="0 0 53 53" fill="none" xmlns="http://www.w3.org/2000/svg">
<path d="M52.234 26.7339C52.234 12.3099 40.541 0.616943 26.117 0.616943C11.693 0.616943 0 12.3099 0 26.7339C0 41.158 11.693 52.8509 26.117 52.8509C40.541 52.8509 52.234 41.158 52.234 26.7339Z" fill="black"/>
<path d="M42.366 39.0455H9.78503L20.748 28.0825L25.407 32.7355C25.4939 32.8248 25.598 32.8954 25.713 32.9432C25.828 32.991 25.9515 33.0149 26.076 33.0135C26.2014 33.0144 26.3256 32.9902 26.4415 32.9425C26.5574 32.8948 26.6626 32.8244 26.751 32.7355L31.404 28.0825L42.366 39.0455Z" fill="white"/>
<path d="M9.828 14.4246L26.117 30.7156L42.405 14.4246H9.828Z" fill="white"/>
<path d="M19.447 26.734L8.49601 37.691C8.49001 37.621 8.48401 37.553 8.48401 37.483V15.983C8.48401 15.913 8.49001 15.845 8.49601 15.783L19.447 26.734Z" fill="white"/>
<path d="M43.752 15.9859V37.4859C43.752 37.5559 43.746 37.6239 43.74 37.6939L32.783 26.7339L43.743 15.7839C43.743 15.8479 43.752 15.9139 43.752 15.9859Z" fill="white"/>
</svg>
