<svg width="53" height="53" viewBox="0 0 53 53" fill="none" xmlns="http://www.w3.org/2000/svg">
<path d="M52.234 26.2659C52.234 11.8419 40.541 0.148926 26.117 0.148926C11.693 0.148926 0 11.8419 0 26.2659C0 40.6899 11.693 52.3829 26.117 52.3829C40.541 52.3829 52.234 40.6899 52.234 26.2659Z" fill="black"/>
<path fill-rule="evenodd" clip-rule="evenodd" d="M17.135 14.1789C18.566 13.2669 19.478 13.9199 19.999 15.3499L21.299 18.7349C21.299 18.7349 22.2111 20.5569 19.8681 22.3789C19.7333 22.4835 19.6355 22.6284 19.5889 22.7924C19.5423 22.9565 19.5494 23.1311 19.609 23.2909C20.13 24.8539 22.2091 29.5389 28.8511 33.1829C29.5021 33.5739 29.6311 33.5739 30.2821 33.0529L31.974 31.3609C33.145 30.3189 33.7961 29.9299 34.8381 30.7099C35.6181 31.2309 36.401 31.8809 37.181 32.4019C37.961 33.0529 39.264 33.8329 37.961 35.3949L36.79 36.8259C35.098 38.9089 33.667 39.0389 31.454 38.5179C27.356 37.4834 23.5956 35.4054 20.539 32.4862C17.4824 29.567 15.2338 25.9061 14.012 21.8599C13.5617 20.4164 13.6269 18.8612 14.1966 17.4604C14.7663 16.0597 15.805 14.9004 17.135 14.1809V14.1789Z" fill="white"/>
</svg>
