<?xml version="1.0" encoding="UTF-8"?>
<svg id="Layer_2" data-name="Layer 2" xmlns="http://www.w3.org/2000/svg" viewBox="0 0 166.05 166.06">
  <defs>
    <style>
      .cls-1 {
        fill: #fff;
        fill-rule: evenodd;
      }
    </style>
  </defs>
  <g id="Layer_2-2" data-name="Layer 2">
    <path class="cls-1" d="M53.52,45.1c4.64-2.95,7.59-.84,9.27,3.79l4.21,10.96s2.95,5.9-4.64,11.8c-.84.56-1.12,1.54-.84,2.95,1.69,5.06,8.43,20.23,29.92,32.03,2.11,1.26,2.53,1.26,4.64-.42l5.48-5.48c3.79-3.37,5.9-4.64,9.27-2.11,2.53,1.69,5.06,3.79,7.59,5.48,2.53,2.11,6.74,4.64,2.53,9.69l-3.79,4.64c-5.48,6.74-10.12,7.17-17.28,5.48-27.4-7.16-47.63-26.55-56.48-53.95-2.95-10.54,1.26-19.39,10.12-24.87h0ZM83.02,0c45.94,0,83.03,37.09,83.03,83.03s-37.09,83.03-83.03,83.03c-12.64,0-24.45-2.53-34.98-7.59l-44.25,7.59,5.9-43.83-.42-.84C3.37,110.01,0,96.94,0,83.04,0,37.1,37.09.01,83.03.01h-.01ZM30.76,147.52l11.8-2.11,7.17-1.26c10.12,5.48,21.07,8.43,33.3,8.43,38.35,0,69.54-31.19,69.54-69.54S121.38,13.5,83.03,13.5,13.49,44.69,13.49,83.04c0,13.91,4.21,26.55,10.96,37.51l-.84,6.32-1.69,12.64-1.26,9.69,10.12-1.69h-.02Z"/>
  </g>
</svg>