<svg width="53" height="53" viewBox="0 0 53 53" fill="none" xmlns="http://www.w3.org/2000/svg">
<path d="M52.234 26.4999C52.234 12.0759 40.541 0.382935 26.117 0.382935C11.693 0.382935 0 12.0759 0 26.4999C0 40.924 11.693 52.6169 26.117 52.6169C40.541 52.6169 52.234 40.924 52.234 26.4999Z" fill="black"/>
<path fill-rule="evenodd" clip-rule="evenodd" d="M20.0429 18.6914C20.9979 18.0844 21.6059 18.5184 21.9509 19.4714L22.8179 21.7274C22.8179 21.7274 23.4249 22.9424 21.8629 24.1564C21.7738 24.2264 21.7091 24.3228 21.6781 24.4318C21.647 24.5408 21.6512 24.6569 21.6899 24.7634C22.0379 25.8054 23.4259 28.9284 27.8499 31.3574C28.2839 31.6164 28.3709 31.6164 28.8049 31.2714L29.9329 30.1434C30.7129 29.4494 31.1479 29.1884 31.8409 29.7094C32.3619 30.0574 32.8829 30.4894 33.4039 30.8374C33.9249 31.2714 34.7919 31.7924 33.9249 32.8324L33.1449 33.7874C32.7708 34.3551 32.213 34.777 31.565 34.9826C30.9169 35.1881 30.2179 35.1647 29.5849 34.9164C26.8529 34.2268 24.3461 32.8412 22.3088 30.8947C20.2715 28.9482 18.7732 26.5071 17.9599 23.8094C17.6594 22.8468 17.7029 21.8097 18.0829 20.8757C18.4629 19.9416 19.1558 19.1687 20.0429 18.6894V18.6914ZM26.1159 9.40637C30.6268 9.44087 34.9411 11.257 38.1186 14.4589C41.2961 17.6608 43.0792 21.9889 43.0792 26.4999C43.0792 31.0108 41.2961 35.3389 38.1186 38.5408C34.9411 41.7427 30.6268 43.5589 26.1159 43.5934C23.6288 43.6215 21.1675 43.0872 18.9159 42.0304L9.80594 43.5934L11.0209 34.5704L10.9349 34.3974C9.5884 31.7889 8.93475 28.8781 9.0367 25.9444C9.13865 23.0106 9.99279 20.1523 11.5172 17.6435C13.0415 15.1348 15.185 13.0599 17.7419 11.6178C20.2988 10.1758 23.1834 9.41496 26.1189 9.40837L26.1159 9.40637ZM15.3579 39.7764L17.7869 39.3424L19.2629 39.0834C21.3638 40.2347 23.7233 40.8321 26.1189 40.8194C28.9503 40.8192 31.718 39.9794 34.0721 38.4063C36.4262 36.8331 38.261 34.5973 39.3444 31.9814C40.4278 29.3655 40.7112 26.4872 40.1588 23.7102C39.6064 20.9333 38.2429 18.3825 36.2409 16.3804C34.2388 14.3784 31.688 13.0149 28.9111 12.4625C26.1342 11.9101 23.2558 12.1935 20.6399 13.2769C18.024 14.3603 15.7882 16.1951 14.215 18.5492C12.6419 20.9033 11.8021 23.671 11.8019 26.5024C11.8171 29.2367 12.5987 31.912 14.0579 34.2244L13.8849 35.5244L13.5369 38.1244L13.2779 40.1194L15.3609 39.7714L15.3579 39.7764Z" fill="white"/>
</svg>
